<?xml version="1.0" encoding="utf-8"?>
<!-- Generated by IcoMoon.io -->
<!DOCTYPE svg PUBLIC "-//W3C//DTD SVG 1.1//EN" "http://www.w3.org/Graphics/SVG/1.1/DTD/svg11.dtd">
<svg version="1.1" xmlns="http://www.w3.org/2000/svg" xmlns:xlink="http://www.w3.org/1999/xlink" width="16" height="16" viewBox="0 0 16 16">
<path d="M10 0.667h-4v1.333h4v-1.333zM7.333 9.333h1.333v-4h-1.333v4zM12.683 4.923l0.95-0.95c-0.287-0.343-0.6-0.657-0.943-0.943l-0.95 0.95c-1.023-0.82-2.327-1.313-3.743-1.313-3.317 0-5.997 2.687-5.997 6s2.68 6 5.997 6 6.003-2.687 6.003-6c0-1.417-0.493-2.717-1.317-3.743zM8 13.333c-2.577 0-4.667-2.090-4.667-4.667s2.090-4.667 4.667-4.667 4.667 2.090 4.667 4.667-2.090 4.667-4.667 4.667z" fill="#333333"></path>
</svg>
