<?xml version="1.0" encoding="utf-8"?>
<!-- Generated by IcoMoon.io -->
<!DOCTYPE svg PUBLIC "-//W3C//DTD SVG 1.1//EN" "http://www.w3.org/Graphics/SVG/1.1/DTD/svg11.dtd">
<svg version="1.1" xmlns="http://www.w3.org/2000/svg" xmlns:xlink="http://www.w3.org/1999/xlink" width="16" height="16" viewBox="0 0 16 16">
<path d="M12.69 3.033l-0.95 0.95c-1.023-0.823-2.327-1.317-3.743-1.317-1.22 0-2.35 0.367-3.297 0.99l0.97 0.97c0.687-0.397 1.48-0.627 2.33-0.627 2.577 0 4.667 2.090 4.667 4.667 0 0.85-0.23 1.643-0.627 2.33l0.97 0.97c0.623-0.947 0.99-2.080 0.99-3.3 0-1.417-0.493-2.717-1.317-3.743l0.95-0.95-0.943-0.94zM10 0.667h-4v1.333h4v-1.333zM7.333 6.29l1.333 1.333v-2.29h-1.333v0.957zM2.013 2.667l-0.85 0.847 1.837 1.837c-0.63 0.95-1 2.090-1 3.317 0 3.313 2.68 6 5.997 6 1.227 0 2.367-0.37 3.317-1l1.667 1.667 0.847-0.85-11.813-11.817zM8 13.333c-2.577 0-4.667-2.090-4.667-4.667 0-0.857 0.233-1.657 0.637-2.347l6.377 6.377c-0.69 0.403-1.49 0.637-2.347 0.637z" fill="#333333"></path>
</svg>
